<svg xmlns="http://www.w3.org/2000/svg" xmlns:xlink="http://www.w3.org/1999/xlink" viewBox="0 0 824.12 609.88"><defs><style>.cls-1{fill:none;}.cls-2{isolation:isolate;}.cls-3{fill:#a1e7ff;}.cls-4{fill:#231f20;}.cls-5{fill:#020202;}.cls-6{fill:#ffcdc2;}.cls-10,.cls-11,.cls-17,.cls-20,.cls-25,.cls-7{mix-blend-mode:multiply;}.cls-7{opacity:0.7;}.cls-8{fill:#e0a4ab;}.cls-9{fill:#ffde17;}.cls-10{opacity:0.45;}.cls-11{opacity:0.34;}.cls-12{fill:#f9ed32;}.cls-13{fill:#f7ce92;}.cls-14{fill:#dd2e17;}.cls-15{fill:#f2dfc2;}.cls-16{fill:#005b7f;}.cls-17,.cls-21{opacity:0.23;}.cls-18{fill:#414042;}.cls-19,.cls-21,.cls-24{mix-blend-mode:screen;}.cls-22{clip-path:url(#clip-path);}.cls-23{fill:#770800;}.cls-24{opacity:0.47;}.cls-25{opacity:0.27;}.cls-26{fill:#003444;}.cls-27{fill:#fff;}.cls-28{fill:#ef736a;}</style><clipPath id="clip-path"><path class="cls-1" d="M82.05,319.08l13,55c17,71.75,71.16,126,138.33,138.43l169.12,31.4a159.59,159.59,0,0,0,80.77-5.9l175.84-59.85c64.1-21.82,110.78-82,119.7-154.42h0c7.83-63.59-14.71-127.12-59.78-168.53L607.52,52.81C578.16,25.84,541.38,10.28,503,8.58L312.77.16c-57.84-2.56-113,26.5-147,77.43l-56.24,84.29C79.29,207.21,69.21,264.85,82.05,319.08Z"/></clipPath></defs><g class="cls-2"><g id="Layer_2" data-name="Layer 2"><g id="Layer_1-2" data-name="Layer 1"><path class="cls-3" d="M82.05,319.08l13,55c17,71.75,71.16,126,138.33,138.43l169.12,31.4a159.59,159.59,0,0,0,80.77-5.9l175.84-59.85c64.1-21.82,110.78-82,119.7-154.42h0c7.83-63.59-14.71-127.12-59.78-168.53L607.52,52.81C578.16,25.84,541.38,10.28,503,8.58L312.77.16c-57.84-2.56-113,26.5-147,77.43l-56.24,84.29C79.29,207.21,69.21,264.85,82.05,319.08Z"/><path class="cls-4" d="M332.71,61l-1.12,3.36-8.5,25.74L316.21,111c-23.67-24.33-70.34-9.5-70.34-9.5a203.59,203.59,0,0,1,2.68-27.1c2.2-12.84,5.48-22.55,9.13-29.87C267.9,23.92,281,22,281,22l7.5,2.15,25.74,7.43Z"/><path class="cls-5" d="M323.09,90.11,316.21,111c-23.67-24.33-70.34-9.5-70.34-9.5a203.59,203.59,0,0,1,2.68-27.1c1.66-.7,4.91-2,6.07,2.34,2,7.52,12.59,14.42,20.92,8.51s17.66-7.43,33.17,1.57C314.91,90.38,319.64,90.84,323.09,90.11Z"/><path class="cls-6" d="M270.74,104.08s7.23-7.73,9.7-14.65a11.87,11.87,0,0,0,.81-4.22l15.88,5.25a57.06,57.06,0,0,0,.46,9.43c.58,4.23,1.84,8.62,4.53,10.2C307.88,113.46,279.75,120.71,270.74,104.08Z"/><g class="cls-7"><path class="cls-8" d="M297.59,99.89c-10.55-1.2-15.33-7.28-17.15-10.46a11.87,11.87,0,0,0,.81-4.22l15.88,5.25A57.06,57.06,0,0,0,297.59,99.89Z"/></g><path class="cls-6" d="M476,177.66s-3.1-1.07-2.21-4a4,4,0,0,1-1.42-4s-7.56-.13-9.95-3.69,2.43-2.78,2.43-2.78L476,168.74l1,4.88Z"/><path class="cls-6" d="M286.72,90.15l-.55-.2c-12.39-4.58-14.34-17.23-9.77-29.63l9.25-38.07,49.1,18.11L322.46,73.67A27.83,27.83,0,0,1,286.72,90.15Z"/><path class="cls-6" d="M284.31,56.71s-1.24-4.39-7.41-5-14.36,13.79,1.9,17.19C278.8,68.93,279.88,60.51,284.31,56.71Z"/><path class="cls-4" d="M333.62,64.83s-.77-.13-2-.46c-5.83-1.54-21.93-7.42-16.71-24.57,0,0-7.25,13.75-18.67,16.74s-18.67,24.84-18.67,24.84S275,65.79,284.31,57.71c0,0-1.39-4.89-9.41-6.32l4.39-21.3L281,22s10.16-14.17,31.5-9.5S342.38,44.46,333.62,64.83Z"/><path class="cls-6" d="M442.44,176.45s-10.05,6.33-23,13.73l0,0c-18.2,10.43-42.1,23-51.64,23.08-12.36.12-27.88-18.55-34.68-27.65-.59-.78-1.12-1.5-1.57-2.12-1.23-1.69-1.92-2.73-1.92-2.73l24.84-24.5s13.83,21,20.49,21S435.28,159,435.28,159l6.36,15.53Z"/><path class="cls-6" d="M477.45,179.58a2.23,2.23,0,0,1-2.42-2.75,10.47,10.47,0,0,1,1.19-4.05,4.5,4.5,0,0,1-1.81-4.33s-7.55-.92-10.84-4.67,4.85-3.56,4.85-3.56l11.24,7.48S482.07,176.45,477.45,179.58Z"/><path class="cls-9" d="M479.16,183.26s-7.25-2.06-10.38,5.69-3.5,23-22.75,23.25c0,0,13.75,11.5,24.13,0Z"/><path class="cls-6" d="M481.34,181s-1.25,1.38-3.43,0,.68-8.31.68-8.31-2.2-2.75-1.51-5.5c0,0-7.62-2.25-9.68-6.22s4.51-3.15,4.51-3.15l10.62,5.75,1.5,7.56Z"/><g class="cls-7"><path class="cls-8" d="M476,177.66s-3.1-1.07-2.21-4a4,4,0,0,1-1.42-4s-7.56-.13-9.95-3.69,2.43-2.78,2.43-2.78L476,168.74l1,4.88Z"/></g><path class="cls-6" d="M477.45,179.58a2.23,2.23,0,0,1-2.42-2.75,10.47,10.47,0,0,1,1.19-4.05,4.5,4.5,0,0,1-1.81-4.33s-7.55-.92-10.84-4.67,4.85-3.56,4.85-3.56l11.24,7.48S482.07,176.45,477.45,179.58Z"/><g class="cls-10"><path class="cls-8" d="M477.45,179.58a2.23,2.23,0,0,1-2.42-2.75,10.47,10.47,0,0,1,1.19-4.05,4.5,4.5,0,0,1-1.81-4.33s-7.55-.92-10.84-4.67,4.85-3.56,4.85-3.56l11.24,7.48S482.07,176.45,477.45,179.58Z"/></g><path class="cls-6" d="M481.34,181s-1.25,1.38-3.43,0,.68-8.31.68-8.31-2.2-2.75-1.51-5.5c0,0-7.62-2.25-9.68-6.22s4.51-3.15,4.51-3.15l10.62,5.75,1.5,7.56Z"/><g class="cls-11"><path class="cls-8" d="M481.34,181s-1.25,1.38-3.43,0,.68-8.31.68-8.31-2.2-2.75-1.51-5.5c0,0-7.62-2.25-9.68-6.22s4.51-3.15,4.51-3.15l10.62,5.75,1.5,7.56Z"/></g><path class="cls-9" d="M479.16,183.26s7.5,2.07,6.5,9.32-3.85,18,3.89,29.12c0,0-10.39-3.06-12.52-13.34S479.16,183.26,479.16,183.26Z"/><path class="cls-12" d="M479.16,183.26s-11.16,8.44-9.77,18.82,3.39,25.5-1.36,31.37c0,0,10.51-1.5,12.26-13.87s-4.12-18.25,0-26S479.16,183.26,479.16,183.26Z"/><path class="cls-9" d="M472.34,184.35a5,5,0,0,1,2.61-3c2.29-1.32.39-6.22.39-6.22s2.19-2.41,3.57,0c0,0-1.46,5.73.67,6.45s3,3.41,3,3.41-4.46.8-5,3.3-1.5.87-1.75-1.38S472.34,184.35,472.34,184.35Z"/><path class="cls-6" d="M489.45,171a32.47,32.47,0,0,1-2.5,7c-1,1.89-2.15,3.48-3.42,3.88l0,0c-3,.89-4-2.65-1.27-6.39,0,0-1-8.07.18-10.82,0,0-8.94-1.87-11.75-5.94,0,0-9,5-10.87,12.62,0,0,6.38,2.82,7.75,6.2,0,0,5.5-2.9,8.78-1.56a3.38,3.38,0,0,1,1.66,1.37,18.47,18.47,0,0,1-3.54,3.25,13.19,13.19,0,0,1-7.47,2.63s-9.49-5.07-12.44-6.06-12.08-.76-12.08-.76l-.8-2L435.28,159S458,146,471.7,150.79c0,0,12.16,5.58,14.5,8.17S490,168.62,489.45,171Z"/><path class="cls-13" d="M478,177.39a18.58,18.58,0,0,1-3.53,3.25,2.71,2.71,0,0,1-.81-1.72c0-.9,2.15-2.51,2.68-2.9A3.34,3.34,0,0,1,478,177.39Z"/><path class="cls-13" d="M487,178c-1,1.89-2.15,3.48-3.42,3.88l0,0c.74-1,2.33-3.32,2.62-3.58A2.12,2.12,0,0,1,487,178Z"/><g class="cls-7"><path class="cls-8" d="M279.74,55.83s-5.52-2.76-7,1.29,4.45,6.27,4.45,6.27S275.43,59.21,279.74,55.83Z"/></g><path class="cls-6" d="M215.38,180s-16.76,14.74-27.77,31.49c-6.88,10.47-13.55,39.45-17.6,59.71-2.42,12.15-3.89,21.17-3.89,21.17l-14.25,3.28c0-46,11-91,16-102.33,3.48-7.92,14.63-22.83,21-31.1,2.77-3.57,4.64-5.91,4.64-5.91l5.45,5.91Z"/><g class="cls-7"><path class="cls-8" d="M215.38,180s-16.76,14.74-27.77,31.49c-6.88,10.47-13.55,39.45-17.6,59.71-.94-29.27,7.87-57.65,18.89-73.64s0-35.34,0-35.34H199Z"/></g><polygon class="cls-6" points="72.65 361.02 48.94 343.81 37.12 360.96 57.76 381.13 72.65 361.02"/><path class="cls-4" d="M1.74,363.87s-2.78-2.68-1.31-5,39.9-27.48,42.93-27,5.58,4,5.58,4Z"/><path class="cls-14" d="M56.86,348.18s-.34.22-.93.64a73.92,73.92,0,0,0-8.44,7.05A41.71,41.71,0,0,0,40.2,365a2.37,2.37,0,0,1-2.88,1.1c-2-.73-5.13-1.66-6.76-1.2a24.05,24.05,0,0,1-9.24.87c-2.85-.46-10,.58-13.43,1.79s-5.77-.52-6.15-3.66c0,0,.94-.91,2.71-2.41a153.26,153.26,0,0,1,18.27-13.34,128.87,128.87,0,0,1,25.81-12.55S55.64,339.78,56.86,348.18Z"/><path class="cls-6" d="M151.87,295.63s-9.25,19.08-5.37,32.58c0,0-.46,12.17,3.12,18.59,0,0,2,1.08,3.34.41,0,0-1.84-12.33-1.84-18.91,0,0,2.92,18.66,4.17,23.16,0,0,1.67,1.09,5.42,0,0,0-4.5-18.91-4.34-24.91,0,0,3.17,22.91,5.59,26.58,0,0,4-.17,4.58-2.75,0,0-4.75-21.08-4.75-25.25,0,0,7.5,11.75,13.58,14.75,0,0,1.84-2.17,1.59-4.17,0,0-9.92-10.58-11-15.58,0,0,.41-11.08.25-13,0,0,3.08,1.38,3.95,6,0,0,.63,7.37,6.51,5.5,0,0,.39-5.92-2-10.11s-2.87-8.29-8.5-16.18Z"/><polygon class="cls-15" points="240.62 561.47 242.37 590.72 263.13 588.97 265.63 560.22 240.62 561.47"/><path class="cls-16" d="M301.37,295.62s-5.1,31.8-9.76,66c-3.36,24.64-6.48,50.53-7.3,66.66-.95,18.52-4.78,51.34-8.52,80.4a.34.34,0,0,1,0,.09c-4,31.3-7.9,58.2-7.9,58.2s-19-.5-34.51,0c0,0,.23-6.67.6-17.24,1.08-30.29,3.29-92.55,4.4-121.45,1.51-39,2-103.31,2-103.31s-11.72,21-27.69,45.25c0,0,0,0,0,0v0C192,401.58,164.24,438.3,145.55,442c-20.38,4-50.5-19-70.71-37.31-12.69-11.51-21.47-21.18-21.47-21.18l12.3-25.73,2.2-4.61S128.55,398,143.38,387c8.52-6.34,26.45-36.73,40.13-61.39,2.55-4.6,5-9,7.13-13,6.39-11.83,10.73-20.23,10.73-20.23S280.37,284.3,301.37,295.62Z"/><g class="cls-17"><path class="cls-16" d="M301.37,295.62s-5.1,31.8-9.76,66c-4.87-19.57-25.1-70.51-101-49,6.39-11.83,10.73-20.23,10.73-20.23S280.37,284.3,301.37,295.62Z"/></g><path class="cls-14" d="M357,158.29s-5,6.81-10.62,14.12c-6.65,8.61-14.19,17.91-15.55,17.55-2.49-.66-10-11.34-10-11.34s.87,14.52.29,34.46c-.76,26.62-4.11,62.94-15.55,87.38,0,0-28.25.51-49.5-5.5s-58.5,7.52-62.74,5.52c0,0,0-6.76,4.49-18.52.54-1.4,1.43-4.1,2.56-7.75,8.3-26.5,30-103.36,30.43-104.72-.43.5-10,11.71-11.15,14.47-.8,1.91-14.21-7.48-23.45-15.1-4.4-3.62-7.85-6.84-8.55-8.24-2.17-4.33,34-58.83,84-58.49a10.09,10.09,0,0,0,.71.91A22.91,22.91,0,0,0,287.87,111c7.5.69,9.59-1,11.15-2.31a4.31,4.31,0,0,1,2.35-1.19c3.17-.34,21.5,7.16,29.67,18.33S357,158.29,357,158.29Z"/><path class="cls-4" d="M300.8,602.44s1.08,4.09-1.62,5.44-52.94,3.15-55.53,1-2.93-6.93-2.93-6.93Z"/><path class="cls-14" d="M300.79,602.43s-29.54,6.5-59.84,0a21.19,21.19,0,0,1-1.58-13.79,18.13,18.13,0,0,1,.9-2.73s12.26-.51,22-4.73a32,32,0,0,0,3.16-1.56,2.64,2.64,0,0,1,3.34.59c1.48,1.84,3.86,4.47,5.63,4.95a26.46,26.46,0,0,1,9.16,4.44c2.41,2,9.7,5.1,13.6,5.93a5.2,5.2,0,0,1,3.87,2.66A5,5,0,0,1,300.79,602.43Z"/><path class="cls-18" d="M333.62,64.83C337,17.69,298,19,288.46,24.19a5.68,5.68,0,0,0-1.63,1.26c-2.29,2.8-4.91,3.67-7.54,4.64-3,1.1-6,2.34-8.55,6.69-3.11,5.33-9.2,7.11-13.06,7.71C267.9,23.92,281,22,281,22s10.16-14.17,31.5-9.5S342.38,44.46,333.62,64.83Z"/><g class="cls-19"><path class="cls-14" d="M272.41,103a145.58,145.58,0,0,0-28.78,9.74c-38.24,17.29-45.86,45.73-47.37,56.08-4.4-3.62-7.85-6.84-8.55-8.24-2.17-4.33,34-58.83,84-58.49A10.09,10.09,0,0,0,272.41,103Z"/></g><g class="cls-19"><path class="cls-14" d="M357,158.29s-5,6.81-10.62,14.12c-7.49-45.23-39.7-60.68-47.4-63.76a4.31,4.31,0,0,1,2.35-1.19c3.17-.34,21.5,7.16,29.67,18.33S357,158.29,357,158.29Z"/></g><g class="cls-20"><path class="cls-14" d="M321.17,213.08c-.76,26.62-4.11,62.94-15.55,87.38,0,0-28.25.51-49.5-5.5s-58.5,7.52-62.74,5.52c0,0,0-6.76,4.49-18.52.54-1.4,1.43-4.1,2.56-7.75C291.63,289.93,315.24,236.61,321.17,213.08Z"/></g><g class="cls-7"><path class="cls-8" d="M454.52,177.21c-2.93-1-12.08-.76-12.08-.76s-10.05,6.33-23,13.73l0,0c-18.2,10.43-42.1,23-51.64,23.08-12.36.12-27.88-18.55-34.68-27.65-.59-.78,1.64,2.2,1.19,1.58.35-.53,4.55-5.23,5-5.77,0,0,17.77,38.44,51.1,18.73,24.53-14.51,38.91-24.7,51.27-25.68A22.84,22.84,0,0,1,454.52,177.21Z"/></g><g class="cls-17"><path class="cls-16" d="M212.66,370.22v0C192,401.58,164.24,438.3,145.55,442c-20.38,4-50.5-19-70.71-37.31,14.12,6.4,42.52,17.89,64.86,18.13C170.37,423.12,211.76,371.37,212.66,370.22Z"/></g><g class="cls-17"><path class="cls-16" d="M275.78,508.76c-4,31.3-7.9,58.2-7.9,58.2s-19-.5-34.51,0c0,0,.23-6.67.6-17.24C266.93,550,275.27,511.26,275.78,508.76Z"/></g><g class="cls-21"><path class="cls-16" d="M183.51,325.58s-16.8,70.21-42.8,71.54-75-39.38-75-39.38l2.2-4.61S128.55,398,143.38,387C151.9,380.63,169.83,350.24,183.51,325.58Z"/></g><g class="cls-19"><path class="cls-14" d="M56.86,348.18s-.34.22-.93.64c-9-7.5-25.68-3.18-33.21-.69a128.87,128.87,0,0,1,25.81-12.55S55.64,339.78,56.86,348.18Z"/></g><g class="cls-20"><path class="cls-14" d="M47.49,355.87A41.71,41.71,0,0,0,40.2,365a2.37,2.37,0,0,1-2.88,1.1c-2-.73-5.13-1.66-6.76-1.2a24.05,24.05,0,0,1-9.24.87c-2.85-.46-10,.58-13.43,1.79s-5.77-.52-6.15-3.66c0,0,.94-.91,2.71-2.41C14.46,363.18,30.83,363.91,47.49,355.87Z"/></g><g class="cls-20"><path class="cls-14" d="M300.79,602.43s-29.54,6.5-59.84,0a21.19,21.19,0,0,1-1.58-13.79C242.17,591.93,256.71,605.8,300.79,602.43Z"/></g><g class="cls-19"><path class="cls-14" d="M301,598.19a51,51,0,0,1-38.76-17,32,32,0,0,0,3.16-1.56,2.64,2.64,0,0,1,3.34.59c1.48,1.84,3.86,4.47,5.63,4.95a26.46,26.46,0,0,1,9.16,4.44c2.41,2,9.7,5.1,13.6,5.93A5.2,5.2,0,0,1,301,598.19Z"/></g><g class="cls-22"><path class="cls-4" d="M324.78,351.75h8.3a11.71,11.71,0,0,1,11.71,11.71V609.88a0,0,0,0,1,0,0h-20a0,0,0,0,1,0,0V351.75A0,0,0,0,1,324.78,351.75Z"/><rect class="cls-4" x="564.28" y="121.88" width="10" height="489.01" transform="translate(935.67 -202.9) rotate(90)"/><path class="cls-4" d="M803.8,351.75h10a0,0,0,0,1,0,0V609.88a0,0,0,0,1,0,0h-20a0,0,0,0,1,0,0V361.77A10,10,0,0,1,803.8,351.75Z"/><path class="cls-14" d="M556.71,330.7V549.44A37.5,37.5,0,0,1,519.21,587H435.35a37.49,37.49,0,0,1-37.25-33.24,35.48,35.48,0,0,1-.25-4.27V330.7Z"/><path class="cls-14" d="M551.91,319.33H402.66a74.63,74.63,0,1,1,149.25,0Z"/><g class="cls-19"><path class="cls-14" d="M506.8,250.77c-75.15,0-104.14,68.56-104.14,68.56A74.65,74.65,0,0,1,506.8,250.77Z"/></g><g class="cls-20"><path class="cls-14" d="M551.91,319.33H402.66c95.41-4.41,127.09-26.48,137.59-40.06A74.18,74.18,0,0,1,551.91,319.33Z"/></g><path class="cls-23" d="M429.78,298.76a47.5,47.5,0,0,1,95,0Z"/><rect class="cls-23" x="394.03" y="319.32" width="166.5" height="12.46" rx="6.23"/><path class="cls-16" d="M738.22,330.7V549.44A37.51,37.51,0,0,1,700.71,587H616.86a37.51,37.51,0,0,1-37.2-32.69,38.26,38.26,0,0,1-.31-4.82V330.7Z"/><path class="cls-16" d="M733.41,319.33H584.16c0-1.79.07-3.57.2-5.32a74.62,74.62,0,0,1,149,5.32Z"/><g class="cls-24"><path class="cls-16" d="M700.64,257.55c-57.82-10.49-98.63,25-113.42,40.56a74.63,74.63,0,0,1,113.42-40.56Z"/></g><g class="cls-25"><path class="cls-16" d="M733.41,319.33H584.16c0-1.79.07-3.57.2-5.32,93.47,3.68,126.27-18.77,137.77-34.14A74.24,74.24,0,0,1,733.41,319.33Z"/></g><path class="cls-26" d="M611.28,298.76a47.5,47.5,0,0,1,95,0Z"/><rect class="cls-26" x="575.53" y="319.32" width="166.5" height="12.46" rx="6.23"/><circle class="cls-4" cx="813.79" cy="365.79" r="7.25"/><circle class="cls-4" cx="821.04" cy="365.79" r="3.08"/><circle class="cls-4" cx="325.27" cy="365.79" r="7.25"/><circle class="cls-4" cx="318.02" cy="365.79" r="3.08"/><rect class="cls-27" x="421.28" y="382.29" width="108.5" height="32" rx="16"/><rect class="cls-27" x="604.53" y="382.29" width="108.5" height="32" rx="16"/><g class="cls-20"><path class="cls-14" d="M556.71,473.08v76.36A37.5,37.5,0,0,1,519.21,587H435.35a37.49,37.49,0,0,1-37.25-33.24C500.35,576.86,544.38,500.63,556.71,473.08Z"/></g><g class="cls-25"><path class="cls-16" d="M738.22,492v57.4A37.51,37.51,0,0,1,700.71,587H616.86a37.51,37.51,0,0,1-37.2-32.69C680.85,576.24,723,522.36,738.22,492Z"/></g></g><circle class="cls-4" cx="299.22" cy="62.89" r="2.56"/><path class="cls-4" d="M303.49,59.52a.67.67,0,0,1-.55-.29c-.11-.15-2.58-3.55-8.34-3.09a.67.67,0,0,1-.73-.62.68.68,0,0,1,.62-.73c6.58-.54,9.44,3.5,9.56,3.67a.68.68,0,0,1-.18.94A.66.66,0,0,1,303.49,59.52Z"/><circle class="cls-4" cx="315.15" cy="69.45" r="2.56"/><path class="cls-4" d="M319.43,66.08a.67.67,0,0,1-.56-.29c-.1-.15-2.57-3.55-8.34-3.09a.67.67,0,0,1-.72-.62.66.66,0,0,1,.61-.72c6.59-.55,9.44,3.49,9.56,3.67a.66.66,0,0,1-.17.93A.68.68,0,0,1,319.43,66.08Z"/><path class="cls-28" d="M301.62,82.69a9.74,9.74,0,0,1-9-5.37,1,1,0,1,1,1.85-.77c.1.23,2.41,5.39,9.8,3.85a1,1,0,0,1,1.19.78,1,1,0,0,1-.78,1.18A14.73,14.73,0,0,1,301.62,82.69Z"/></g></g></g></svg>